<svg width="172" height="26" viewBox="0 0 172 26" fill="none" xmlns="http://www.w3.org/2000/svg">
<path d="M43.8 10.394C44.508 10.646 45.048 11.024 45.42 11.528C45.792 12.02 45.978 12.626 45.978 13.346C45.978 14.474 45.528 15.368 44.628 16.028C43.74 16.676 42.48 17 40.848 17H34.116V4.4H40.506C42.066 4.4 43.272 4.688 44.124 5.264C44.988 5.84 45.42 6.65 45.42 7.694C45.42 8.294 45.276 8.822 44.988 9.278C44.712 9.734 44.316 10.106 43.8 10.394ZM38.292 9.242H40.092C40.788 9.242 41.136 8.936 41.136 8.324C41.136 7.688 40.788 7.37 40.092 7.37H38.292V9.242ZM40.65 14.03C41.346 14.03 41.694 13.694 41.694 13.022C41.694 12.374 41.346 12.05 40.65 12.05H38.292V14.03H40.65ZM58.077 7.154V17H54.207V16.19C53.619 16.85 52.719 17.18 51.507 17.18C50.643 17.18 49.845 16.976 49.113 16.568C48.393 16.148 47.817 15.548 47.385 14.768C46.965 13.988 46.755 13.088 46.755 12.068C46.755 11.048 46.965 10.154 47.385 9.386C47.817 8.606 48.393 8.012 49.113 7.604C49.845 7.184 50.643 6.974 51.507 6.974C52.599 6.974 53.433 7.256 54.009 7.82V7.154H58.077ZM52.479 14.012C52.947 14.012 53.331 13.844 53.631 13.508C53.931 13.16 54.081 12.68 54.081 12.068C54.081 11.456 53.931 10.982 53.631 10.646C53.331 10.31 52.947 10.142 52.479 10.142C52.011 10.142 51.627 10.31 51.327 10.646C51.027 10.982 50.877 11.456 50.877 12.068C50.877 12.68 51.027 13.16 51.327 13.508C51.627 13.844 52.011 14.012 52.479 14.012ZM76.1165 7.154V17H59.9345V7.154H63.9845V13.814H66.0185V7.154H70.0685V13.814H72.0845V7.154H76.1165ZM88.5884 7.154V17H84.7184V16.064C84.3584 16.436 83.9384 16.718 83.4584 16.91C82.9784 17.09 82.4684 17.18 81.9284 17.18C80.6804 17.18 79.6784 16.802 78.9224 16.046C78.1664 15.278 77.7884 14.126 77.7884 12.59V7.154H81.8564V11.888C81.8564 12.56 81.9644 13.04 82.1804 13.328C82.3964 13.616 82.7144 13.76 83.1344 13.76C83.5304 13.76 83.8604 13.604 84.1244 13.292C84.3884 12.968 84.5204 12.464 84.5204 11.78V7.154H88.5884ZM106.771 7.154V15.038C106.771 16.91 106.249 18.314 105.205 19.25C104.173 20.198 102.697 20.672 100.777 20.672C99.7933 20.672 98.8753 20.564 98.0233 20.348C97.1713 20.144 96.4453 19.844 95.8453 19.448L97.2133 16.676C97.5973 16.964 98.0833 17.198 98.6713 17.378C99.2593 17.558 99.8233 17.648 100.363 17.648C101.179 17.648 101.773 17.474 102.145 17.126C102.517 16.778 102.703 16.268 102.703 15.596V15.416C102.091 16.112 101.185 16.46 99.9853 16.46C99.1453 16.46 98.3593 16.268 97.6273 15.884C96.9073 15.488 96.3313 14.93 95.8993 14.21C95.4673 13.478 95.2513 12.644 95.2513 11.708C95.2513 10.772 95.4673 9.944 95.8993 9.224C96.3313 8.504 96.9073 7.952 97.6273 7.568C98.3593 7.172 99.1453 6.974 99.9853 6.974C101.329 6.974 102.301 7.406 102.901 8.27V7.154H106.771ZM101.065 13.292C101.545 13.292 101.941 13.148 102.253 12.86C102.577 12.56 102.739 12.176 102.739 11.708C102.739 11.24 102.577 10.862 102.253 10.574C101.941 10.286 101.545 10.142 101.065 10.142C100.573 10.142 100.165 10.286 99.8413 10.574C99.5293 10.862 99.3733 11.24 99.3733 11.708C99.3733 12.176 99.5353 12.56 99.8593 12.86C100.183 13.148 100.585 13.292 101.065 13.292ZM114.169 14.174C114.601 14.174 114.961 14.12 115.249 14.012C115.549 13.904 115.873 13.718 116.221 13.454L118.345 15.596C117.361 16.652 115.927 17.18 114.043 17.18C112.855 17.18 111.811 16.964 110.911 16.532C110.011 16.088 109.315 15.476 108.823 14.696C108.331 13.916 108.085 13.04 108.085 12.068C108.085 11.084 108.331 10.208 108.823 9.44C109.315 8.66 109.987 8.054 110.839 7.622C111.703 7.19 112.669 6.974 113.737 6.974C114.709 6.974 115.603 7.172 116.419 7.568C117.235 7.952 117.883 8.528 118.363 9.296C118.843 10.052 119.083 10.958 119.083 12.014L112.351 13.31C112.651 13.886 113.257 14.174 114.169 14.174ZM113.755 9.746C113.287 9.746 112.903 9.884 112.603 10.16C112.315 10.436 112.141 10.844 112.081 11.384L115.231 10.772C115.123 10.46 114.937 10.214 114.673 10.034C114.421 9.842 114.115 9.746 113.755 9.746ZM120.421 7.154H124.471V10.61H127.243V7.154H131.293V17H127.243V13.796H124.471V17H120.421V7.154ZM138.222 17.324C136.458 17.324 135.144 16.97 134.28 16.262C133.428 15.542 133.002 14.462 133.002 13.022V7.154H137.052V10.052C137.652 9.764 138.468 9.62 139.5 9.62C140.748 9.62 141.726 9.926 142.434 10.538C143.154 11.138 143.514 12.062 143.514 13.31C143.514 14.642 143.04 15.644 142.092 16.316C141.144 16.988 139.854 17.324 138.222 17.324ZM138.204 14.588C138.6 14.588 138.894 14.48 139.086 14.264C139.278 14.048 139.374 13.754 139.374 13.382C139.374 13.022 139.278 12.74 139.086 12.536C138.894 12.332 138.618 12.23 138.258 12.23C137.742 12.23 137.34 12.374 137.052 12.662V13.4C137.052 13.772 137.148 14.066 137.34 14.282C137.532 14.486 137.82 14.588 138.204 14.588ZM153.335 10.322H148.781V17H144.731V7.154H153.335V10.322ZM165.071 7.154V17H161.201V16.064C160.841 16.436 160.421 16.718 159.941 16.91C159.461 17.09 158.951 17.18 158.411 17.18C157.163 17.18 156.161 16.802 155.405 16.046C154.649 15.278 154.271 14.126 154.271 12.59V7.154H158.339V11.888C158.339 12.56 158.447 13.04 158.663 13.328C158.879 13.616 159.197 13.76 159.617 13.76C160.013 13.76 160.343 13.604 160.607 13.292C160.871 12.968 161.003 12.464 161.003 11.78V7.154H165.071Z" fill="black"/>
<rect x="10" y="4" width="7" height="13" fill="#E60000"/>
<rect x="20" y="1" width="7" height="16" fill="#8F0000"/>
<rect y="9" width="7" height="8" fill="#FFA800"/>
</svg>
